<svg xmlns="http://www.w3.org/2000/svg" enable-background="new 0 0 24 24" height="24" viewBox="0 0 24 24" width="24"><path d="m0 0h24v24h-24z" fill="none"/><path d="m18.18 10-2.18-6h-4v2h2.6l1.46 4h-4.81l-.36-1h1.11v-2h-5v2h1.75l1.82 5h-.67c-.44-2.23-2.31-3.88-4.65-3.99-2.8-.14-5.25 2.19-5.25 4.99s2.2 5 5 5c2.46 0 4.45-1.69 4.9-4h4.2c.44 2.23 2.31 3.88 4.65 3.99 2.8.13 5.25-2.19 5.25-5 0-2.8-2.2-5-5-5h-.82zm-10.36 6c-.4 1.17-1.49 2-2.82 2-1.68 0-3-1.32-3-3s1.32-3 3-3c1.33 0 2.42.83 2.82 2h-2.82v2zm6.28-2h-1.4l-.73-2h3.03c-.44.58-.76 1.25-.9 2zm4.9 4c-1.68 0-3-1.32-3-3 0-.93.41-1.73 1.05-2.28l.96 2.64 1.88-.68-.97-2.67c.03 0 .06-.01.09-.01 1.68 0 3 1.32 3 3s-1.33 3-3.01 3z" fill="#292c23"/></svg>